<svg width="44" height="44" viewBox="0 0 44 44" xmlns="http://www.w3.org/2000/svg"><title>Google</title><g fill="#4E1A74" fill-rule="evenodd"><path d="M22 44C9.869 44 0 34.13 0 22S9.869 0 22 0s22 9.87 22 22-9.869 22-22 22zm0-42.328C10.791 1.672 1.672 10.792 1.672 22c0 11.209 9.119 20.328 20.328 20.328 11.208 0 20.328-9.12 20.328-20.328 0-11.209-9.12-20.328-20.328-20.328z"/><path d="M18.718 20.3v3.168s2.929-.004 4.121-.004c-.646 2.054-1.65 3.172-4.12 3.172-2.502 0-4.454-2.128-4.454-4.752 0-2.625 1.952-4.753 4.453-4.753 1.322 0 2.177.488 2.96 1.168.627-.658.574-.752 2.17-2.333-1.355-1.294-3.154-2.082-5.13-2.082-4.21 0-7.623 3.581-7.623 8 0 4.418 3.414 8 7.623 8 6.293 0 7.83-5.75 7.321-9.585h-7.32zm13.736.158v-2.772h-1.886v2.772H27.85v1.98h2.718v2.852h1.886v-2.852h2.641v-1.98h-2.64z"/></g></svg>