<?xml version="1.0" encoding="UTF-8" standalone="no"?>
<svg width="11px" height="7px" viewBox="0 0 11 7" version="1.1" xmlns="http://www.w3.org/2000/svg" xmlns:xlink="http://www.w3.org/1999/xlink">
    <!-- Generator: Sketch 42 (36781) - http://www.bohemiancoding.com/sketch -->
    <title>Combined Shape Copy 2</title>
    <desc>Created with Sketch.</desc>
    <defs></defs>
    <g id="govCMS-Theme" stroke="none" stroke-width="1" fill="none" fill-rule="evenodd">
        <g id="DESKTOP-02-D-DROPDOWN-v1" transform="translate(-610.000000, -32.000000)" fill="#FFFFFF">
            <g id="Hover" transform="translate(240.000000, 0.000000)">
                <g id="Menu/Arrow/Down-Copy-4" transform="translate(370.000000, 32.000000)">
                    <path d="M5.12295643,3.70595866 L1.70664286,0.289645087 C1.32198113,-0.0950166399 0.6850536,-0.0987791961 0.294529308,0.291745096 C-0.0987176473,0.684992051 -0.0969351896,1.31449416 0.292429299,1.70385865 L4.01794712,5.42937647 C4.05440862,5.61899067 4.14647019,5.80054023 4.29452931,5.94859935 C4.52040411,6.17447415 4.82870903,6.26844684 5.12295643,6.2331078 C5.41720384,6.26844684 5.72550875,6.17447415 5.95138356,5.94859935 C6.09944267,5.80054023 6.19150424,5.61899067 6.22796574,5.42937647 L9.95348357,1.70385865 C10.3428481,1.31449416 10.3446305,0.684992051 9.95138356,0.291745096 C9.56085927,-0.0987791961 8.92393173,-0.0950166399 8.53927,0.289645087 L5.12295643,3.70595866 Z" id="Combined-Shape-Copy-2"></path>
                </g>
            </g>
        </g>
    </g>
</svg>