<?xml version="1.0" encoding="UTF-8" standalone="no"?>
<svg width="44px" height="44px" viewBox="0 0 44 44" version="1.1" xmlns="http://www.w3.org/2000/svg" xmlns:xlink="http://www.w3.org/1999/xlink">
    <!-- Generator: Sketch 40.2 (33826) - http://www.bohemiancoding.com/sketch -->
    <title>Google</title>
    <desc>Created with Sketch.</desc>
    <defs></defs>
    <g id="Symbols" stroke="none" stroke-width="1" fill="none" fill-rule="evenodd">
        <g id="Desktop-Footer" transform="translate(-487.000000, -38.000000)" fill="#4E1A74">
            <g id="Footer">
                <g id="Connect">
                    <g id="Icons" transform="translate(379.000000, 38.000000)">
                        <g id="Google" transform="translate(108.000000, 0.000000)">
                            <path d="M22,44 C9.86895049,44 0,34.1309245 0,22.0002787 C0,9.86907552 9.86895049,0 22,0 C34.1310495,0 44,9.86907552 44,22.0002787 C44,34.1309245 34.1310495,44 22,44 L22,44 Z M22,1.67234673 C10.7909593,1.67234673 1.67232555,10.791096 1.67232555,22.0002787 C1.67232555,33.208904 10.7909593,42.3276533 22,42.3276533 C33.2084833,42.3276533 42.3276745,33.208904 42.3276745,22.0002787 C42.3276745,10.791096 33.2084833,1.67234673 22,1.67234673 L22,1.67234673 Z" id="Google+-Circle"></path>
                            <path d="M18.7183391,20.2994199 L18.7183391,23.4677676 C18.7183391,23.4677676 21.6468946,23.4640291 22.8393709,23.4640291 C22.193471,25.5176917 21.1895308,26.6361153 18.7183391,26.6361153 C16.2174098,26.6361153 14.2654359,24.5083066 14.2654359,21.8839053 C14.2654359,19.2588809 16.2174098,17.1310722 18.7183391,17.1310722 C20.0404712,17.1310722 20.8945341,17.6189417 21.6778216,18.2987189 C22.3046895,17.6407494 22.2523514,17.5472878 23.8474744,15.9659178 C22.4932257,14.6724095 20.6935082,13.8835937 18.7183391,13.8835937 C14.5086892,13.8835937 11.0954114,17.4650416 11.0954114,21.8839053 C11.0954114,26.3021459 14.5086892,29.8835937 18.7183391,29.8835937 C25.010808,29.8835937 26.5488349,24.1332141 26.039133,20.2994199 L18.7183391,20.2994199 Z M32.4541208,20.4576815 L32.4541208,17.685611 L30.5675696,17.685611 L30.5675696,20.4576815 L27.8501508,20.4576815 L27.8501508,22.4378209 L30.5675696,22.4378209 L30.5675696,25.2896454 L32.4541208,25.2896454 L32.4541208,22.4378209 L35.0954114,22.4378209 L35.0954114,20.4576815 L32.4541208,20.4576815 Z" id="Google+"></path>
                        </g>
                    </g>
                </g>
            </g>
        </g>
    </g>
</svg>
